PathFileType	4	(X/Y/Z)	./resultDataOpenSim/trcMotMarkerGrf/sub10/qtm-14-04.trc
DataRate	CameraRate	NumFrames	NumMarkers	Units	OrigDataRate	OrigDataStartFrame	OrigNumFrames
250.000000	250.000000	5	24	m	250.000000	62	490
Frame#	Time	L.Toe.Tip			R.Toe.Tip			L.Ankle.Lat			R.Ankle.Lat			L.Ankle.Med			R.Ankle.Med			L.Heel			R.Heel			L.Knee.Lat			R.Knee.Lat			L.Knee.Med			R.Knee.Med			L.Thigh.Upper			R.Thigh.Upper			L.ASIS			R.ASIS			V.Sacral			L.Acromium			R.Acromium			C7			L.Elbow			R.Elbow			L.Wrist.Lat			R.Wrist.Lat
		X1	Y1	Z1	X2	Y2	Z2	X3	Y3	Z3	X4	Y4	Z4	X5	Y5	Z5	X6	Y6	Z6	X7	Y7	Z7	X8	Y8	Z8	X9	Y9	Z9	X10	Y10	Z10	X11	Y11	Z11	X12	Y12	Z12	X13	Y13	Z13	X14	Y14	Z14	X15	Y15	Z15	X16	Y16	Z16	X17	Y17	Z17	X18	Y18	Z18	X19	Y19	Z19	X20	Y20	Z20	X21	Y21	Z21	X22	Y22	Z22	X23	Y23	Z23	X24	Y24	Z24

62	0.244	-1.3514763	0.068762285	-0.23733475	-0.73190678	0.038927649	-0.02118111	-1.3373976	0.2071726	-0.27725189	-0.87948622	0.052372655	0.012482279	-1.3098625	0.20160649	-0.19802009	-0.85480193	0.079692082	-0.071211813	-1.3751618	0.25812591	-0.23139393	-0.92495498	0.028869959	-0.037364644	-1.0294096	0.41661027	-0.28703175	-0.84524362	0.45221599	0.04619109	-1.0056041	0.37318859	-0.17605497	-0.84453263	0.45928655	-0.082744236	-1.0093795	0.79325472	-0.28402167	-0.94381663	0.8601723	0.098074487	-0.94134831	0.9034492	-0.23294412	-0.89800243	0.94346051	-0.001967403	-1.1149065	0.9259699	-0.072170334	-0.99443676	1.3963596	-0.25898246	-1.0025633	1.3873281	0.060639057	-1.0815876	1.4181696	-0.10253467	-1.0429234	1.0528411	-0.33507715	-1.123154	1.0720297	0.11562267	-0.81987884	0.93354039	-0.31223914	-1.0836704	0.84954498	0.20346139
63	0.248	-1.3363147	0.069875493	-0.23892	-0.73183613	0.038883803	-0.021222797	-1.3256794	0.20884137	-0.27657481	-0.8794752	0.052431294	0.012482756	-1.2983725	0.20324903	-0.19732226	-0.85465232	0.079720032	-0.071280186	-1.3650651	0.25880729	-0.23042174	-0.9249833	0.028899985	-0.037333688	-1.016975	0.41729503	-0.28642606	-0.84308576	0.45230111	0.046261555	-0.99408794	0.37442568	-0.17504105	-0.8419583	0.45946019	-0.08258203	-1.0028827	0.79374295	-0.28361122	-0.93907478	0.86068388	0.098443234	-0.93500747	0.9042291	-0.23272571	-0.89163372	0.94440115	-0.0013889413	-1.109246	0.92666174	-0.073004942	-0.98835726	1.3971455	-0.25837456	-0.99586466	1.3879587	0.061184998	-1.0754918	1.4193094	-0.10161669	-1.0384714	1.0538648	-0.33416395	-1.1157595	1.0723075	0.11673379	-0.81601156	0.93325181	-0.31246868	-1.0749498	0.84992602	0.20431871
64	0.252	-1.3206015	0.070899422	-0.2405297	-0.73179357	0.038846976	-0.021252719	-1.3138098	0.21032592	-0.27580119	-0.8794861	0.052492563	0.012472877	-1.2866225	0.20477222	-0.19656193	-0.8545133	0.079743812	-0.071349841	-1.3549042	0.25916179	-0.22940281	-0.92501427	0.028932848	-0.037316165	-1.0044767	0.41810947	-0.2857636	-0.84111097	0.452361	0.04633773	-0.98254322	0.37575251	-0.17400458	-0.83967489	0.45960591	-0.082433029	-0.99645606	0.79438546	-0.28319028	-0.93426506	0.86122886	0.098791497	-0.92882306	0.90508452	-0.23260827	-0.88524279	0.94549936	-0.00081815197	-1.1036431	0.92750232	-0.073932601	-0.98232347	1.3979754	-0.25773277	-0.98929162	1.3886514	0.06171142	-1.069458	1.4204555	-0.10074408	-1.034076	1.0549631	-0.33323253	-1.1085358	1.0726211	0.11763269	-0.81230215	0.93297976	-0.3126964	-1.0660891	0.85038366	0.20512169
65	0.256	-1.3047677	0.071786318	-0.24193782	-0.73178525	0.038818633	-0.02126926	-1.3017902	0.21164655	-0.27495768	-0.87949211	0.052569254	0.012451265	-1.2745261	0.20619064	-0.19577958	-0.85440101	0.079763672	-0.071417539	-1.3446358	0.25921283	-0.22832924	-0.92504706	0.02896815	-0.037316978	-0.99198402	0.41908074	-0.28503261	-0.83931651	0.45239188	0.046426077	-0.97091627	0.3771817	-0.17295138	-0.83764387	0.4597155	-0.082292108	-0.99009916	0.79520445	-0.28272455	-0.92939979	0.86182801	0.099142585	-0.92283991	0.90602707	-0.23258042	-0.87927063	0.94670917	-4.2029567e-05	-1.0980475	0.92837154	-0.074915659	-0.97633567	1.3988506	-0.2570576	-0.98284587	1.3894135	0.062220912	-1.0634783	1.4216093	-0.099900216	-1.029736	1.0561344	-0.33229319	-1.1015715	1.0729909	0.11827511	-0.80873428	0.93272042	-0.31291617	-1.0570236	0.85092008	0.20588672
66	0.26	-1.2890491	0.072533168	-0.2430734	-0.73181363	0.038802548	-0.021269912	-1.289624	0.21282202	-0.27407419	-0.87944712	0.052669025	0.012413417	-1.2622063	0.20751675	-0.1949947	-0.85432588	0.079783063	-0.071482522	-1.3342232	0.25899108	-0.22718751	-0.92507127	0.029006758	-0.037358919	-0.97960279	0.42019592	-0.28423511	-0.83769156	0.4523968	0.04652929	-0.95918242	0.37872176	-0.17186925	-0.83582141	0.4597867	-0.08214834	-0.98380827	0.79619575	-0.28219771	-0.92455762	0.86249941	0.099497994	-0.91708866	0.9070735	-0.23261772	-0.87385428	0.94797489	0.0010256355	-1.0924079	0.92920281	-0.075803727	-0.97040743	1.3997828	-0.25635852	-0.97646469	1.3902613	0.062728769	-1.0575409	1.4227734	-0.099070412	-1.0254511	1.057381	-0.33135773	-1.0947797	1.073428	0.11877038	-0.80530021	0.93246526	-0.31312199	-1.0476743	0.85153457	0.20664383
